<?xml version="1.0" encoding="UTF-8" standalone="no"?>
<!DOCTYPE svg PUBLIC "-//W3C//DTD SVG 1.1//EN"
 "http://www.w3.org/Graphics/SVG/1.1/DTD/svg11.dtd">
<!-- Generated by graphviz version 2.47.0 (20210316.0004)
 -->
<!-- Title: dependencies Pages: 1 -->
<svg width="763pt" height="211pt"
 viewBox="0.00 0.00 763.00 211.00" xmlns="http://www.w3.org/2000/svg" xmlns:xlink="http://www.w3.org/1999/xlink">
<g id="graph0" class="graph" transform="scale(1 1) rotate(0) translate(4 207)">
<title>dependencies</title>
<polygon fill="white" stroke="transparent" points="-4,4 -4,-207 759,-207 759,4 -4,4"/>
<text text-anchor="start" x="356.51" y="-42.4" font-family="Times-12" font-weight="bold" font-size="14.00">Legend</text>
<polygon fill="#ffffb3" stroke="transparent" points="143.5,-10 143.5,-30 163.5,-30 163.5,-10 143.5,-10"/>
<text text-anchor="start" x="167.13" y="-15.4" font-family="Times-12" font-size="14.00"> &#160;Declarations</text>
<polygon fill="#8dd3c7" stroke="transparent" points="256.5,-10 256.5,-30 276.5,-30 276.5,-10 256.5,-10"/>
<text text-anchor="start" x="280.23" y="-15.4" font-family="Times-12" font-size="14.00"> &#160;Module</text>
<polygon fill="#80b1d3" stroke="transparent" points="342.5,-10 342.5,-30 362.5,-30 362.5,-10 342.5,-10"/>
<text text-anchor="start" x="366.28" y="-15.4" font-family="Times-12" font-size="14.00"> &#160;Bootstrap</text>
<polygon fill="#fdb462" stroke="transparent" points="439.5,-10 439.5,-30 459.5,-30 459.5,-10 439.5,-10"/>
<text text-anchor="start" x="463.17" y="-15.4" font-family="Times-12" font-size="14.00"> &#160;Providers</text>
<polygon fill="#fb8072" stroke="transparent" points="535.5,-10 535.5,-30 555.5,-30 555.5,-10 535.5,-10"/>
<text text-anchor="start" x="559.23" y="-15.4" font-family="Times-12" font-size="14.00"> &#160;Exports</text>
<g id="clust1" class="cluster">
<title>cluster_MenuModule</title>
<polygon fill="none" stroke="black" stroke-dasharray="1,5" points="8,-70 8,-195 747,-195 747,-70 8,-70"/>
</g>
<g id="clust2" class="cluster">
<title>cluster_MenuModule_declarations</title>
<polygon fill="none" stroke="black" points="178,-78 178,-130 739,-130 739,-78 178,-78"/>
</g>
<g id="clust7" class="cluster">
<title>cluster_MenuModule_imports</title>
<polygon fill="none" stroke="black" points="16,-78 16,-130 170,-130 170,-78 16,-78"/>
</g>
<!-- MAddComponent -->
<g id="node1" class="node">
<title>MAddComponent</title>
<polygon fill="#ffffb3" stroke="black" points="730.88,-122 613.12,-122 613.12,-86 730.88,-86 730.88,-122"/>
<text text-anchor="middle" x="672" y="-99.8" font-family="Times,serif" font-size="14.00">MAddComponent</text>
</g>
<!-- MenuModule -->
<g id="node5" class="node">
<title>MenuModule</title>
<polygon fill="#8dd3c7" stroke="black" points="434.21,-187 431.21,-191 410.21,-191 407.21,-187 341.79,-187 341.79,-151 434.21,-151 434.21,-187"/>
<text text-anchor="middle" x="388" y="-164.8" font-family="Times,serif" font-size="14.00">MenuModule</text>
</g>
<!-- MAddComponent&#45;&gt;MenuModule -->
<g id="edge1" class="edge">
<title>MAddComponent&#45;&gt;MenuModule</title>
<path fill="none" stroke="black" d="M672,-122.28C672,-143.32 672,-175 672,-175 672,-175 444.26,-175 444.26,-175"/>
<polygon fill="black" stroke="black" points="444.26,-171.5 434.26,-175 444.26,-178.5 444.26,-171.5"/>
</g>
<!-- MDeleteComponent -->
<g id="node2" class="node">
<title>MDeleteComponent</title>
<polygon fill="#ffffb3" stroke="black" points="595.31,-122 464.69,-122 464.69,-86 595.31,-86 595.31,-122"/>
<text text-anchor="middle" x="530" y="-99.8" font-family="Times,serif" font-size="14.00">MDeleteComponent</text>
</g>
<!-- MDeleteComponent&#45;&gt;MenuModule -->
<g id="edge2" class="edge">
<title>MDeleteComponent&#45;&gt;MenuModule</title>
<path fill="none" stroke="black" d="M530,-122.02C530,-139.37 530,-163 530,-163 530,-163 444.5,-163 444.5,-163"/>
<polygon fill="black" stroke="black" points="444.5,-159.5 434.5,-163 444.5,-166.5 444.5,-159.5"/>
</g>
<!-- MEditComponent -->
<g id="node3" class="node">
<title>MEditComponent</title>
<polygon fill="#ffffb3" stroke="black" points="446.61,-122 329.39,-122 329.39,-86 446.61,-86 446.61,-122"/>
<text text-anchor="middle" x="388" y="-99.8" font-family="Times,serif" font-size="14.00">MEditComponent</text>
</g>
<!-- MEditComponent&#45;&gt;MenuModule -->
<g id="edge3" class="edge">
<title>MEditComponent&#45;&gt;MenuModule</title>
<path fill="none" stroke="black" d="M388,-122.11C388,-122.11 388,-140.99 388,-140.99"/>
<polygon fill="black" stroke="black" points="384.5,-140.99 388,-150.99 391.5,-140.99 384.5,-140.99"/>
</g>
<!-- MIndexComponent -->
<g id="node4" class="node">
<title>MIndexComponent</title>
<polygon fill="#ffffb3" stroke="black" points="311.65,-122 186.35,-122 186.35,-86 311.65,-86 311.65,-122"/>
<text text-anchor="middle" x="249" y="-99.8" font-family="Times,serif" font-size="14.00">MIndexComponent</text>
</g>
<!-- MIndexComponent&#45;&gt;MenuModule -->
<g id="edge4" class="edge">
<title>MIndexComponent&#45;&gt;MenuModule</title>
<path fill="none" stroke="black" d="M249,-122.02C249,-139.37 249,-163 249,-163 249,-163 331.72,-163 331.72,-163"/>
<polygon fill="black" stroke="black" points="331.72,-166.5 341.72,-163 331.71,-159.5 331.72,-166.5"/>
</g>
<!-- MenuRoutingModule -->
<g id="node6" class="node">
<title>MenuRoutingModule</title>
<polygon fill="#8dd3c7" stroke="black" points="161.83,-122 158.83,-126 137.83,-126 134.83,-122 24.17,-122 24.17,-86 161.83,-86 161.83,-122"/>
<text text-anchor="middle" x="93" y="-99.8" font-family="Times,serif" font-size="14.00">MenuRoutingModule</text>
</g>
<!-- MenuRoutingModule&#45;&gt;MenuModule -->
<g id="edge5" class="edge">
<title>MenuRoutingModule&#45;&gt;MenuModule</title>
<path fill="none" stroke="black" d="M93,-122.28C93,-143.32 93,-175 93,-175 93,-175 331.58,-175 331.58,-175"/>
<polygon fill="black" stroke="black" points="331.58,-178.5 341.58,-175 331.58,-171.5 331.58,-178.5"/>
</g>
</g>
</svg>
