<?xml version="1.0" encoding="UTF-8" standalone="no"?>
<!DOCTYPE svg PUBLIC "-//W3C//DTD SVG 1.1//EN"
 "http://www.w3.org/Graphics/SVG/1.1/DTD/svg11.dtd">
<!-- Generated by graphviz version 2.47.0 (20210316.0004)
 -->
<!-- Title: dependencies Pages: 1 -->
<svg width="979pt" height="211pt"
 viewBox="0.00 0.00 979.00 211.00" xmlns="http://www.w3.org/2000/svg" xmlns:xlink="http://www.w3.org/1999/xlink">
<g id="graph0" class="graph" transform="scale(1 1) rotate(0) translate(4 207)">
<title>dependencies</title>
<polygon fill="white" stroke="transparent" points="-4,4 -4,-207 975,-207 975,4 -4,4"/>
<text text-anchor="start" x="464.51" y="-42.4" font-family="Times-12" font-weight="bold" font-size="14.00">Legend</text>
<polygon fill="#ffffb3" stroke="transparent" points="251.5,-10 251.5,-30 271.5,-30 271.5,-10 251.5,-10"/>
<text text-anchor="start" x="275.13" y="-15.4" font-family="Times-12" font-size="14.00"> &#160;Declarations</text>
<polygon fill="#8dd3c7" stroke="transparent" points="364.5,-10 364.5,-30 384.5,-30 384.5,-10 364.5,-10"/>
<text text-anchor="start" x="388.23" y="-15.4" font-family="Times-12" font-size="14.00"> &#160;Module</text>
<polygon fill="#80b1d3" stroke="transparent" points="450.5,-10 450.5,-30 470.5,-30 470.5,-10 450.5,-10"/>
<text text-anchor="start" x="474.28" y="-15.4" font-family="Times-12" font-size="14.00"> &#160;Bootstrap</text>
<polygon fill="#fdb462" stroke="transparent" points="547.5,-10 547.5,-30 567.5,-30 567.5,-10 547.5,-10"/>
<text text-anchor="start" x="571.17" y="-15.4" font-family="Times-12" font-size="14.00"> &#160;Providers</text>
<polygon fill="#fb8072" stroke="transparent" points="643.5,-10 643.5,-30 663.5,-30 663.5,-10 643.5,-10"/>
<text text-anchor="start" x="667.23" y="-15.4" font-family="Times-12" font-size="14.00"> &#160;Exports</text>
<g id="clust1" class="cluster">
<title>cluster_AdminModule</title>
<polygon fill="none" stroke="black" stroke-dasharray="1,5" points="8,-70 8,-195 963,-195 963,-70 8,-70"/>
</g>
<g id="clust8" class="cluster">
<title>cluster_AdminModule_imports</title>
<polygon fill="none" stroke="black" points="795,-78 795,-130 955,-130 955,-78 795,-78"/>
</g>
<g id="clust2" class="cluster">
<title>cluster_AdminModule_declarations</title>
<polygon fill="none" stroke="black" points="16,-78 16,-130 787,-130 787,-78 16,-78"/>
</g>
<!-- AheaderComponent -->
<g id="node1" class="node">
<title>AheaderComponent</title>
<polygon fill="#ffffb3" stroke="black" points="779.24,-122 650.76,-122 650.76,-86 779.24,-86 779.24,-122"/>
<text text-anchor="middle" x="715" y="-99.8" font-family="Times,serif" font-size="14.00">AheaderComponent</text>
</g>
<!-- AdminModule -->
<g id="node6" class="node">
<title>AdminModule</title>
<polygon fill="#8dd3c7" stroke="black" points="542.44,-187 539.44,-191 518.44,-191 515.44,-187 443.56,-187 443.56,-151 542.44,-151 542.44,-187"/>
<text text-anchor="middle" x="493" y="-164.8" font-family="Times,serif" font-size="14.00">AdminModule</text>
</g>
<!-- AheaderComponent&#45;&gt;AdminModule -->
<g id="edge1" class="edge">
<title>AheaderComponent&#45;&gt;AdminModule</title>
<path fill="none" stroke="black" d="M715,-122.02C715,-139.37 715,-163 715,-163 715,-163 552.27,-163 552.27,-163"/>
<polygon fill="black" stroke="black" points="552.27,-159.5 542.27,-163 552.27,-166.5 552.27,-159.5"/>
</g>
<!-- AlayoutComponent -->
<g id="node2" class="node">
<title>AlayoutComponent</title>
<polygon fill="#ffffb3" stroke="black" points="632.44,-122 505.56,-122 505.56,-86 632.44,-86 632.44,-122"/>
<text text-anchor="middle" x="569" y="-99.8" font-family="Times,serif" font-size="14.00">AlayoutComponent</text>
</g>
<!-- AlayoutComponent&#45;&gt;AdminModule -->
<g id="edge2" class="edge">
<title>AlayoutComponent&#45;&gt;AdminModule</title>
<path fill="none" stroke="black" d="M524,-122.11C524,-122.11 524,-140.99 524,-140.99"/>
<polygon fill="black" stroke="black" points="520.5,-140.99 524,-150.99 527.5,-140.99 520.5,-140.99"/>
</g>
<!-- DashboardComponent -->
<g id="node3" class="node">
<title>DashboardComponent</title>
<polygon fill="#ffffb3" stroke="black" points="487.97,-122 346.03,-122 346.03,-86 487.97,-86 487.97,-122"/>
<text text-anchor="middle" x="417" y="-99.8" font-family="Times,serif" font-size="14.00">DashboardComponent</text>
</g>
<!-- DashboardComponent&#45;&gt;AdminModule -->
<g id="edge3" class="edge">
<title>DashboardComponent&#45;&gt;AdminModule</title>
<path fill="none" stroke="black" d="M465.88,-122.11C465.88,-122.11 465.88,-140.99 465.88,-140.99"/>
<polygon fill="black" stroke="black" points="462.38,-140.99 465.88,-150.99 469.38,-140.99 462.38,-140.99"/>
</g>
<!-- ReservationComponent -->
<g id="node4" class="node">
<title>ReservationComponent</title>
<polygon fill="#ffffb3" stroke="black" points="328.2,-122 179.8,-122 179.8,-86 328.2,-86 328.2,-122"/>
<text text-anchor="middle" x="254" y="-99.8" font-family="Times,serif" font-size="14.00">ReservationComponent</text>
</g>
<!-- ReservationComponent&#45;&gt;AdminModule -->
<g id="edge4" class="edge">
<title>ReservationComponent&#45;&gt;AdminModule</title>
<path fill="none" stroke="black" d="M254,-122.02C254,-139.37 254,-163 254,-163 254,-163 433.77,-163 433.77,-163"/>
<polygon fill="black" stroke="black" points="433.77,-166.5 443.77,-163 433.77,-159.5 433.77,-166.5"/>
</g>
<!-- SidemenuComponent -->
<g id="node5" class="node">
<title>SidemenuComponent</title>
<polygon fill="#ffffb3" stroke="black" points="161.83,-122 24.17,-122 24.17,-86 161.83,-86 161.83,-122"/>
<text text-anchor="middle" x="93" y="-99.8" font-family="Times,serif" font-size="14.00">SidemenuComponent</text>
</g>
<!-- SidemenuComponent&#45;&gt;AdminModule -->
<g id="edge5" class="edge">
<title>SidemenuComponent&#45;&gt;AdminModule</title>
<path fill="none" stroke="black" d="M93,-122.28C93,-143.32 93,-175 93,-175 93,-175 433.55,-175 433.55,-175"/>
<polygon fill="black" stroke="black" points="433.55,-178.5 443.55,-175 433.55,-171.5 433.55,-178.5"/>
</g>
<!-- AdminRoutingModule -->
<g id="node7" class="node">
<title>AdminRoutingModule</title>
<polygon fill="#8dd3c7" stroke="black" points="946.56,-122 943.56,-126 922.56,-126 919.56,-122 803.44,-122 803.44,-86 946.56,-86 946.56,-122"/>
<text text-anchor="middle" x="875" y="-99.8" font-family="Times,serif" font-size="14.00">AdminRoutingModule</text>
</g>
<!-- AdminRoutingModule&#45;&gt;AdminModule -->
<g id="edge6" class="edge">
<title>AdminRoutingModule&#45;&gt;AdminModule</title>
<path fill="none" stroke="black" d="M875,-122.28C875,-143.32 875,-175 875,-175 875,-175 552.55,-175 552.55,-175"/>
<polygon fill="black" stroke="black" points="552.55,-171.5 542.55,-175 552.55,-178.5 552.55,-171.5"/>
</g>
</g>
</svg>
