<?xml version="1.0" encoding="UTF-8" standalone="no"?>
<!DOCTYPE svg PUBLIC "-//W3C//DTD SVG 1.1//EN"
 "http://www.w3.org/Graphics/SVG/1.1/DTD/svg11.dtd">
<!-- Generated by graphviz version 2.47.0 (20210316.0004)
 -->
<!-- Title: dependencies Pages: 1 -->
<svg width="764pt" height="211pt"
 viewBox="0.00 0.00 764.00 211.00" xmlns="http://www.w3.org/2000/svg" xmlns:xlink="http://www.w3.org/1999/xlink">
<g id="graph0" class="graph" transform="scale(1 1) rotate(0) translate(4 207)">
<title>dependencies</title>
<polygon fill="white" stroke="transparent" points="-4,4 -4,-207 760,-207 760,4 -4,4"/>
<text text-anchor="start" x="357.01" y="-42.4" font-family="Times-12" font-weight="bold" font-size="14.00">Legend</text>
<polygon fill="#ffffb3" stroke="transparent" points="144,-10 144,-30 164,-30 164,-10 144,-10"/>
<text text-anchor="start" x="167.63" y="-15.4" font-family="Times-12" font-size="14.00"> &#160;Declarations</text>
<polygon fill="#8dd3c7" stroke="transparent" points="257,-10 257,-30 277,-30 277,-10 257,-10"/>
<text text-anchor="start" x="280.73" y="-15.4" font-family="Times-12" font-size="14.00"> &#160;Module</text>
<polygon fill="#80b1d3" stroke="transparent" points="343,-10 343,-30 363,-30 363,-10 343,-10"/>
<text text-anchor="start" x="366.78" y="-15.4" font-family="Times-12" font-size="14.00"> &#160;Bootstrap</text>
<polygon fill="#fdb462" stroke="transparent" points="440,-10 440,-30 460,-30 460,-10 440,-10"/>
<text text-anchor="start" x="463.67" y="-15.4" font-family="Times-12" font-size="14.00"> &#160;Providers</text>
<polygon fill="#fb8072" stroke="transparent" points="536,-10 536,-30 556,-30 556,-10 536,-10"/>
<text text-anchor="start" x="559.73" y="-15.4" font-family="Times-12" font-size="14.00"> &#160;Exports</text>
<g id="clust1" class="cluster">
<title>cluster_PublicModule</title>
<polygon fill="none" stroke="black" stroke-dasharray="1,5" points="8,-70 8,-195 748,-195 748,-70 8,-70"/>
</g>
<g id="clust2" class="cluster">
<title>cluster_PublicModule_declarations</title>
<polygon fill="none" stroke="black" points="180,-78 180,-130 740,-130 740,-78 180,-78"/>
</g>
<g id="clust7" class="cluster">
<title>cluster_PublicModule_imports</title>
<polygon fill="none" stroke="black" points="16,-78 16,-130 172,-130 172,-78 16,-78"/>
</g>
<!-- ContactComponent -->
<g id="node1" class="node">
<title>ContactComponent</title>
<polygon fill="#ffffb3" stroke="black" points="732.38,-122 607.62,-122 607.62,-86 732.38,-86 732.38,-122"/>
<text text-anchor="middle" x="670" y="-99.8" font-family="Times,serif" font-size="14.00">ContactComponent</text>
</g>
<!-- PublicModule -->
<g id="node5" class="node">
<title>PublicModule</title>
<polygon fill="#8dd3c7" stroke="black" points="440.83,-187 437.83,-191 416.83,-191 413.83,-187 345.17,-187 345.17,-151 440.83,-151 440.83,-187"/>
<text text-anchor="middle" x="393" y="-164.8" font-family="Times,serif" font-size="14.00">PublicModule</text>
</g>
<!-- ContactComponent&#45;&gt;PublicModule -->
<g id="edge1" class="edge">
<title>ContactComponent&#45;&gt;PublicModule</title>
<path fill="none" stroke="black" d="M670,-122.28C670,-143.32 670,-175 670,-175 670,-175 450.93,-175 450.93,-175"/>
<polygon fill="black" stroke="black" points="450.93,-171.5 440.93,-175 450.93,-178.5 450.93,-171.5"/>
</g>
<!-- HomeComponent -->
<g id="node2" class="node">
<title>HomeComponent</title>
<polygon fill="#ffffb3" stroke="black" points="589.55,-122 474.45,-122 474.45,-86 589.55,-86 589.55,-122"/>
<text text-anchor="middle" x="532" y="-99.8" font-family="Times,serif" font-size="14.00">HomeComponent</text>
</g>
<!-- HomeComponent&#45;&gt;PublicModule -->
<g id="edge2" class="edge">
<title>HomeComponent&#45;&gt;PublicModule</title>
<path fill="none" stroke="black" d="M532,-122.02C532,-139.37 532,-163 532,-163 532,-163 450.84,-163 450.84,-163"/>
<polygon fill="black" stroke="black" points="450.84,-159.5 440.84,-163 450.84,-166.5 450.84,-159.5"/>
</g>
<!-- PheaderComponent -->
<g id="node3" class="node">
<title>PheaderComponent</title>
<polygon fill="#ffffb3" stroke="black" points="456.42,-122 329.58,-122 329.58,-86 456.42,-86 456.42,-122"/>
<text text-anchor="middle" x="393" y="-99.8" font-family="Times,serif" font-size="14.00">PheaderComponent</text>
</g>
<!-- PheaderComponent&#45;&gt;PublicModule -->
<g id="edge3" class="edge">
<title>PheaderComponent&#45;&gt;PublicModule</title>
<path fill="none" stroke="black" d="M393,-122.11C393,-122.11 393,-140.99 393,-140.99"/>
<polygon fill="black" stroke="black" points="389.5,-140.99 393,-150.99 396.5,-140.99 389.5,-140.99"/>
</g>
<!-- PlayoutComponent -->
<g id="node4" class="node">
<title>PlayoutComponent</title>
<polygon fill="#ffffb3" stroke="black" points="312.11,-122 187.89,-122 187.89,-86 312.11,-86 312.11,-122"/>
<text text-anchor="middle" x="250" y="-99.8" font-family="Times,serif" font-size="14.00">PlayoutComponent</text>
</g>
<!-- PlayoutComponent&#45;&gt;PublicModule -->
<g id="edge4" class="edge">
<title>PlayoutComponent&#45;&gt;PublicModule</title>
<path fill="none" stroke="black" d="M250,-122.02C250,-139.37 250,-163 250,-163 250,-163 334.99,-163 334.99,-163"/>
<polygon fill="black" stroke="black" points="334.99,-166.5 344.99,-163 334.99,-159.5 334.99,-166.5"/>
</g>
<!-- PublicRoutingModule -->
<g id="node6" class="node">
<title>PublicRoutingModule</title>
<polygon fill="#8dd3c7" stroke="black" points="164.45,-122 161.45,-126 140.45,-126 137.45,-122 23.55,-122 23.55,-86 164.45,-86 164.45,-122"/>
<text text-anchor="middle" x="94" y="-99.8" font-family="Times,serif" font-size="14.00">PublicRoutingModule</text>
</g>
<!-- PublicRoutingModule&#45;&gt;PublicModule -->
<g id="edge5" class="edge">
<title>PublicRoutingModule&#45;&gt;PublicModule</title>
<path fill="none" stroke="black" d="M94,-122.28C94,-143.32 94,-175 94,-175 94,-175 335.29,-175 335.29,-175"/>
<polygon fill="black" stroke="black" points="335.29,-178.5 345.29,-175 335.29,-171.5 335.29,-178.5"/>
</g>
</g>
</svg>
